<svg xmlns="http://www.w3.org/2000/svg" width="1200" height="600" viewBox="0 0 1200 600">
  <defs>
    <linearGradient id="g" x1="0" y1="0" x2="1" y2="1">
      <stop offset="0%" stop-color="#f2ffe3"/>
      <stop offset="50%" stop-color="#a7f06b"/>
      <stop offset="100%" stop-color="#0b3a1a"/>
    </linearGradient>
    <filter id="s" x="-20%" y="-20%" width="140%" height="140%">
      <feDropShadow dx="0" dy="12" stdDeviation="18" flood-color="#000" flood-opacity="0.18"/>
    </filter>
  </defs>
  <rect width="1200" height="600" fill="url(#g)"/>
  <g filter="url(#s)" transform="translate(90,90)">
    <rect x="0" y="0" width="1020" height="420" rx="28" fill="#ffffff" fill-opacity="0.92"/>
    <rect x="36" y="34" width="300" height="18" rx="9" fill="#14532d" fill-opacity="0.18"/>
    <rect x="36" y="68" width="420" height="14" rx="7" fill="#14532d" fill-opacity="0.12"/>

    <g transform="translate(36,145)">
      <rect width="470" height="200" rx="22" fill="#14532d" fill-opacity="0.06"/>
      <rect x="26" y="26" width="240" height="16" rx="8" fill="#14532d" fill-opacity="0.22"/>
      <rect x="26" y="62" width="420" height="12" rx="6" fill="#14532d" fill-opacity="0.12"/>
      <rect x="26" y="82" width="360" height="12" rx="6" fill="#14532d" fill-opacity="0.10"/>
      <rect x="26" y="120" width="340" height="10" rx="5" fill="#14532d" fill-opacity="0.12"/>
      <rect x="26" y="140" width="240" height="10" rx="5" fill="#14532d" fill-opacity="0.10"/>
      <rect x="26" y="168" width="220" height="34" rx="17" fill="#14532d" fill-opacity="0.12"/>
    </g>

    <g transform="translate(536,145)">
      <rect width="448" height="200" rx="22" fill="#14532d" fill-opacity="0.06"/>
      <rect x="26" y="26" width="220" height="16" rx="8" fill="#14532d" fill-opacity="0.22"/>
      <rect x="26" y="70" width="396" height="12" rx="6" fill="#14532d" fill-opacity="0.12"/>
      <rect x="26" y="92" width="340" height="12" rx="6" fill="#14532d" fill-opacity="0.10"/>
      <rect x="26" y="140" width="260" height="46" rx="18" fill="#14532d" fill-opacity="0.12"/>
      <rect x="300" y="140" width="122" height="46" rx="18" fill="#14532d" fill-opacity="0.08"/>
    </g>
  </g>
  <text x="600" y="560" text-anchor="middle" font-family="ui-sans-serif, system-ui" font-size="26" font-weight="700" fill="#073018" fill-opacity="0.55">
    Budget Tracker Screenshot Placeholder
  </text>
</svg>

