<svg xmlns="http://www.w3.org/2000/svg" width="1200" height="600" viewBox="0 0 1200 600">
  <defs>
    <linearGradient id="g" x1="0" y1="0" x2="1" y2="1">
      <stop offset="0%" stop-color="#e7f7d1"/>
      <stop offset="55%" stop-color="#c8f28a"/>
      <stop offset="100%" stop-color="#0f5a2c"/>
    </linearGradient>
    <filter id="s" x="-20%" y="-20%" width="140%" height="140%">
      <feDropShadow dx="0" dy="10" stdDeviation="18" flood-color="#000" flood-opacity="0.18"/>
    </filter>
  </defs>
  <rect width="1200" height="600" fill="url(#g)"/>
  <g filter="url(#s)" transform="translate(90,90)">
    <rect x="0" y="0" width="1020" height="420" rx="28" fill="#ffffff" fill-opacity="0.92"/>
    <rect x="36" y="34" width="300" height="18" rx="9" fill="#14532d" fill-opacity="0.18"/>
    <rect x="36" y="68" width="540" height="14" rx="7" fill="#14532d" fill-opacity="0.12"/>
    <rect x="36" y="105" width="180" height="12" rx="6" fill="#14532d" fill-opacity="0.10"/>
    <g transform="translate(36,145)">
      <rect width="290" height="115" rx="20" fill="#14532d" fill-opacity="0.07"/>
      <rect x="22" y="22" width="160" height="14" rx="7" fill="#14532d" fill-opacity="0.22"/>
      <rect x="22" y="48" width="220" height="36" rx="18" fill="#14532d" fill-opacity="0.10"/>
      <rect x="22" y="92" width="90" height="10" rx="5" fill="#14532d" fill-opacity="0.14"/>
    </g>
    <g transform="translate(346,145)">
      <rect width="290" height="115" rx="20" fill="#14532d" fill-opacity="0.07"/>
      <rect x="22" y="22" width="170" height="14" rx="7" fill="#14532d" fill-opacity="0.22"/>
      <rect x="22" y="48" width="190" height="36" rx="18" fill="#14532d" fill-opacity="0.10"/>
      <rect x="22" y="92" width="110" height="10" rx="5" fill="#14532d" fill-opacity="0.14"/>
    </g>
    <g transform="translate(656,145)">
      <rect width="290" height="115" rx="20" fill="#14532d" fill-opacity="0.07"/>
      <rect x="22" y="22" width="150" height="14" rx="7" fill="#14532d" fill-opacity="0.22"/>
      <rect x="22" y="48" width="210" height="36" rx="18" fill="#14532d" fill-opacity="0.10"/>
      <rect x="22" y="92" width="120" height="10" rx="5" fill="#14532d" fill-opacity="0.14"/>
    </g>
    <g transform="translate(36,282)">
      <rect width="910" height="108" rx="20" fill="#14532d" fill-opacity="0.06"/>
      <rect x="22" y="22" width="180" height="14" rx="7" fill="#14532d" fill-opacity="0.22"/>
      <rect x="22" y="50" width="310" height="12" rx="6" fill="#14532d" fill-opacity="0.14"/>
      <rect x="22" y="73" width="260" height="12" rx="6" fill="#14532d" fill-opacity="0.12"/>
      <rect x="360" y="50" width="140" height="12" rx="6" fill="#14532d" fill-opacity="0.10"/>
      <rect x="360" y="73" width="170" height="12" rx="6" fill="#14532d" fill-opacity="0.10"/>
    </g>
  </g>
  <text x="600" y="560" text-anchor="middle" font-family="ui-sans-serif, system-ui" font-size="26" font-weight="700" fill="#073018" fill-opacity="0.55">
    Dashboard Screenshot Placeholder
  </text>
</svg>

