<svg xmlns="http://www.w3.org/2000/svg" width="1200" height="600" viewBox="0 0 1200 600">
  <defs>
    <linearGradient id="g" x1="0" y1="0" x2="1" y2="1">
      <stop offset="0%" stop-color="#e8f0ff"/>
      <stop offset="45%" stop-color="#b8d7ff"/>
      <stop offset="100%" stop-color="#1b3a66"/>
    </linearGradient>
    <filter id="s" x="-20%" y="-20%" width="140%" height="140%">
      <feDropShadow dx="0" dy="12" stdDeviation="18" flood-color="#000" flood-opacity="0.18"/>
    </filter>
  </defs>
  <rect width="1200" height="600" fill="url(#g)"/>
  <g filter="url(#s)" transform="translate(90,90)">
    <rect x="0" y="0" width="1020" height="420" rx="28" fill="#ffffff" fill-opacity="0.92"/>
    <g transform="translate(44,56)">
      <rect x="0" y="0" width="932" height="310" rx="20" fill="#14532d" fill-opacity="0.06"/>
      <rect x="22" y="26" width="350" height="16" rx="8" fill="#14532d" fill-opacity="0.22"/>
      <rect x="22" y="58" width="740" height="12" rx="6" fill="#14532d" fill-opacity="0.12"/>
      <rect x="22" y="82" width="680" height="12" rx="6" fill="#14532d" fill-opacity="0.10"/>
      <rect x="22" y="122" width="520" height="12" rx="6" fill="#14532d" fill-opacity="0.12"/>
      <rect x="22" y="146" width="760" height="12" rx="6" fill="#14532d" fill-opacity="0.10"/>
      <rect x="22" y="170" width="450" height="12" rx="6" fill="#14532d" fill-opacity="0.10"/>

      <g transform="translate(22,208)">
        <rect width="260" height="86" rx="18" fill="#14532d" fill-opacity="0.10"/>
        <rect x="18" y="16" width="120" height="12" rx="6" fill="#14532d" fill-opacity="0.22"/>
        <rect x="18" y="40" width="210" height="12" rx="6" fill="#14532d" fill-opacity="0.14"/>
        <rect x="18" y="62" width="150" height="10" rx="5" fill="#14532d" fill-opacity="0.12"/>
      </g>

      <g transform="translate(300,208)">
        <rect width="260" height="86" rx="18" fill="#14532d" fill-opacity="0.08"/>
        <rect x="18" y="16" width="150" height="12" rx="6" fill="#14532d" fill-opacity="0.22"/>
        <rect x="18" y="40" width="220" height="12" rx="6" fill="#14532d" fill-opacity="0.14"/>
        <rect x="18" y="62" width="180" height="10" rx="5" fill="#14532d" fill-opacity="0.12"/>
      </g>
    </g>
  </g>
  <text x="600" y="560" text-anchor="middle" font-family="ui-sans-serif, system-ui" font-size="26" font-weight="700" fill="#0a2449" fill-opacity="0.55">
    Weekly Email Digest Screenshot Placeholder
  </text>
</svg>

